<svg xmlns="http://www.w3.org/2000/svg" xmlns:xlink="http://www.w3.org/1999/xlink" version="1.1" id="Layer_1" x="0px" y="0px" width="100px" height="100px" viewBox="0 0 100 100" enable-background="new 0 0 100 100" xml:space="preserve">
<path fill="#000000" d="M96.414,39h-3.261C91.261,39,90,40.786,90,42.78V57H24.946c0,0-6.271,0.735-10.567-2.974  C9.762,50.04,10,44.434,10,44.434V25.33C10,23.336,8.94,22,7.047,22H3.486C1.593,22,0,23.336,0,25.33V78h9.084l2.407-11h77.018  l2.407,11H100V42.78C100,40.786,98.307,39,96.414,39z"/>
<path fill="#000000" d="M83.713,46.38c-0.777-1.735-3.04-3.165-5.513-3.73c-4.865-1.113-6.091-1.902-17.804-1.902  c-9.012,0-15.428,2.134-19.302,3.619C38.72,45.276,37,47.289,37,48.82c0,0.027,0,0.037,0,0.059c0,0.005,0,0.06,0,0.161  c0,0.021,0,0.031,0,0.059C37,51.708,39.141,53,41.675,53h37.843c2.533,0,4.592-1.15,4.592-3.76  C84.109,48.613,84.033,47.094,83.713,46.38z"/>
<path fill="#000000" d="M30.713,44.923c-2.117-1.746-4.001-3.274-7.26-5.223c-2.928-1.751-6.315-1.807-7.802,0.276  c-1.417,1.985-0.071,6.372,1.904,8.565c2.423,2.691,6.041,4.052,8.762,4.135c2.279,0.069,5.238,0.598,6.673-1.821  C34.034,49.099,32.655,46.524,30.713,44.923z"/>
</svg>