<?xml version="1.0" encoding="utf-8"?>
<!-- Generator: Adobe Illustrator 15.1.0, SVG Export Plug-In . SVG Version: 6.00 Build 0)  -->
<!DOCTYPE svg PUBLIC "-//W3C//DTD SVG 1.1//EN" "http://www.w3.org/Graphics/SVG/1.1/DTD/svg11.dtd">
<svg version="1.1" id="Layer_1" xmlns="http://www.w3.org/2000/svg" xmlns:xlink="http://www.w3.org/1999/xlink" x="0px" y="0px"
	 width="100px" height="58.1px" viewBox="0 0 100 58.1" enable-background="new 0 0 100 58.1" xml:space="preserve">
<path d="M69.987,1.618C69.919,0.714,69.172,0,68.25,0H1.75C0.828,0,0.081,0.714,0.013,1.618L0,46.55c0,0.967,0.783,1.75,1.75,1.75
	h66.5c0.967,0,1.75-0.783,1.75-1.75L69.987,1.618z M3,3.1h64v36.8H3V3.1z"/>
<path d="M46.2,56.7c-2.8-0.7-3.5-2.801-3.5-5.601H27.3c0,2.8-0.7,4.9-3.5,5.601c-0.679,0.169-0.7,1.399,0,1.399H35h11.2
	C46.9,58.1,46.879,56.869,46.2,56.7z"/>
<path d="M97,0.1h-3H83h-3c-1.517,0-3,1.718-3,3v2v1v46v1v2c0,1.282,1.483,3,3,3h3h11h3c1.517,0,3-1.718,3-3v-2v-1v-46v-1v-2
	C100,1.817,98.517,0.1,97,0.1z M98.001,55.083C97.961,55.394,97.365,56.1,97,56.1h-3H83h-3c-0.365,0-0.961-0.706-1.001-1.017
	L79,53.1h19L98.001,55.083z M79,5.1l-0.001-1.983C79.039,2.806,79.635,2.1,80,2.1h3h11h3c0.365,0,0.961,0.706,1.001,1.017L98,5.1H79
	z"/>
</svg>
