<?xml version="1.0" encoding="utf-8"?>
<!-- Generator: Adobe Illustrator 15.1.0, SVG Export Plug-In . SVG Version: 6.00 Build 0)  -->
<!DOCTYPE svg PUBLIC "-//W3C//DTD SVG 1.1//EN" "http://www.w3.org/Graphics/SVG/1.1/DTD/svg11.dtd">
<svg version="1.1" id="Layer_1" xmlns="http://www.w3.org/2000/svg" xmlns:xlink="http://www.w3.org/1999/xlink" x="0px" y="0px"
	 width="100px" height="100px" viewBox="0 0 100 100" enable-background="new 0 0 100 100" xml:space="preserve">
<path d="M50,0C22.43,0,0,22.43,0,50v26c0,2.209,1.791,4,4,4s4-1.791,4-4V50C8,26.841,26.841,8,50,8s42,18.841,42,42v26
	c0,2.209,1.791,4,4,4s4-1.791,4-4V50C100,22.43,77.57,0,50,0z"/>
<path d="M21.001,67c-0.455,0-5.547,0-6.002,0C13,67,12,68,12,70c0,5.438,0,20.534,0,26.999C12,99,13,100,14.999,100
	c0.63,0,5.372,0,6.002,0C23,100,24,99,24,96.999c0-6.465,0-21.561,0-26.999C24,68,23,67,21.001,67z"/>
<path d="M85.001,67c-0.455,0-5.547,0-6.002,0C77,67,76,68,76,70c0,5.438,0,20.534,0,26.999C76,99,77,100,78.999,100
	c0.63,0,5.372,0,6.002,0C87,100,88,99,88,96.999c0-6.465,0-21.561,0-26.999C88,68,87,67,85.001,67z"/>
</svg>
