<?xml version="1.0" encoding="utf-8"?>
<!-- Generator: Adobe Illustrator 15.1.0, SVG Export Plug-In  -->
<!DOCTYPE svg PUBLIC "-//W3C//DTD SVG 1.1//EN" "http://www.w3.org/Graphics/SVG/1.1/DTD/svg11.dtd" [
	<!ENTITY ns_flows "http://ns.adobe.com/Flows/1.0/">
]>
<svg version="1.1"
	 xmlns="http://www.w3.org/2000/svg" xmlns:xlink="http://www.w3.org/1999/xlink" xmlns:a="http://ns.adobe.com/AdobeSVGViewerExtensions/3.0/"
	 x="0px" y="0px" viewBox="0 0 100 100" overflow="visible" enable-background="new 0 0 100 100"
	 xml:space="preserve">
<defs>
</defs>
<polygon fill="#010101" points="90.217,79.29 90.217,84.126 79.793,90.353 69.076,84.126 69.076,79.29 79.856,84.626 "/>
<path fill="#010101" d="M79.844,83.315L100,73.266l-20.156-8.507l-20.719,8.507l4.521,2.193c-0.104,2.604-0.387,7.684-0.714,9.325
	c-0.272,1.358-1.586,3.295-4.047,5.754c-0.095,0.095-0.214,0.235-0.16,0.365c0.057,0.136,0.256,0.136,0.322,0.136
	c0.636,0,2.369-0.586,3.27-1.186c0.132-0.089,0.252-0.134,0.357-0.134c0.395,0,0.625,0.65,0.848,1.279
	c0.21,0.598,0.409,1.163,0.773,1.344c0.055,0.029,0.112,0.043,0.169,0.043c0.128,0,0.248-0.068,0.365-0.202
	c0.672-0.76,1.18-3.791,0.833-6.562c-0.314-2.525-0.157-6.834,0.087-9.141L79.844,83.315z M79.573,68.995
	c0.93,0,1.688,0.758,1.688,1.687c0,0.931-0.758,1.687-1.688,1.687c-0.929,0-1.685-0.756-1.685-1.687
	C77.889,69.753,78.645,68.995,79.573,68.995z"/>
<path fill="#010101" d="M41.179,80.395c0.167,0.671-0.162,1.372-0.737,1.566l-6.344,2.152c-0.574,0.194-1.174-0.19-1.341-0.86
	L30.18,72.92c-0.166-0.671,0.163-1.37,0.737-1.565l6.343-2.153c0.574-0.194,1.176,0.189,1.342,0.861L41.179,80.395z"/>
<path fill="#010101" d="M29.678,73.143c0,0-0.835,0.227-1.65,0.249c-0.816,0.021-2.157-0.151-2.472-0.323
	c-0.316-0.173-0.52-0.283-0.769-0.42c-1.241-0.674-2.274-1.235-2.274-1.235c-0.034-0.02-0.07-0.03-0.106-0.044
	c-0.008-0.004-0.016-0.005-0.024-0.011c-0.128-0.059-0.265-0.098-0.408-0.113l-3.019-0.313c-0.358-0.038-0.698,0.075-0.974,0.298
	c-0.005,0.005-0.015,0.013-0.026,0.023c-0.068,0.057-0.131,0.118-0.189,0.187c-0.752,0.765-3.151,3.303-3.151,3.303
	c0.063,0.073,0.16,0.166,0.283,0.259c0.08,0.059,0.172,0.118,0.274,0.175c0.09,0.049,0.188,0.095,0.293,0.136
	c0.045,0.017,0.091,0.034,0.139,0.049c0.556,0.17,1.384,0.188,2.318-0.562c0.087-0.07,0.594-0.48,0.748-0.61
	c0.245-0.211,0.688-0.406,1.35-0.349c0.663,0.058,1.711,0.404,1.711,0.404l10.007,7.161L29.678,73.143z"/>
<path fill="#010101" d="M18.702,85.382c0.169-0.666,0.767-1.043,1.335-0.847l0,0c0.569,0.196,0.894,0.895,0.724,1.559l-0.7,2.708
	c-0.169,0.663-0.767,1.041-1.335,0.846l0,0c-0.568-0.197-0.894-0.895-0.724-1.559L18.702,85.382z"/>
<path fill="#010101" d="M16.345,83.567c0.169-0.664,0.767-1.043,1.335-0.845l0,0c0.569,0.195,0.894,0.895,0.725,1.556l-0.84,3.186
	c-0.169,0.663-0.767,1.041-1.335,0.846l0,0c-0.569-0.198-0.893-0.896-0.725-1.559L16.345,83.567z"/>
<path fill="#010101" d="M13.61,83.253c0.169-0.664,0.767-1.042,1.335-0.846l0,0c0.569,0.198,0.894,0.896,0.725,1.559l-0.55,2.081
	c-0.168,0.665-0.766,1.043-1.336,0.847l0,0c-0.568-0.196-0.893-0.896-0.724-1.559L13.61,83.253z"/>
<path fill="#010101" d="M11.003,82.451c0.168-0.665,0.766-1.043,1.335-0.845l0,0c0.569,0.198,0.893,0.894,0.725,1.559L12.891,83.8
	c-0.168,0.664-0.767,1.043-1.335,0.845l0,0c-0.569-0.195-0.894-0.894-0.725-1.557L11.003,82.451z"/>
<path fill="#010101" d="M8.533,83.604c-0.21,0.653-0.833,0.983-1.393,0.739L0.953,81.64c-0.56-0.244-0.844-0.971-0.634-1.625
	l3.235-10.08c0.21-0.651,0.833-0.983,1.394-0.739l6.187,2.704c0.56,0.245,0.843,0.972,0.634,1.626L8.533,83.604z"/>
<path fill="#010101" d="M23.84,87.583l-1.314-0.941c-0.001-0.001-0.003-0.001-0.004-0.001l-1.176-0.843
	c-0.005,0.159-0.026,0.317-0.065,0.475l-0.528,2.041l1.963,1.405c0.505,0.364,1.167,0.178,1.478-0.412
	C24.503,88.717,24.346,87.945,23.84,87.583z"/>
<path fill="#010101" d="M31.105,81.687l-5.836-4.18c-0.022-0.017-0.045-0.03-0.069-0.044l-3.689-2.647
	c-0.289-0.088-1.056-0.305-1.532-0.346c-0.034-0.004-0.067-0.005-0.1-0.006c-0.529-0.024-0.8,0.156-0.891,0.234
	c-0.162,0.137-0.68,0.557-0.76,0.621c-0.672,0.539-1.378,0.798-2.097,0.766c-0.224-0.009-0.446-0.049-0.663-0.114
	c-0.045-0.013-0.09-0.028-0.134-0.047l-0.029-0.01c-0.126-0.049-0.246-0.103-0.361-0.166c-0.118-0.064-0.231-0.137-0.337-0.216
	c-0.147-0.11-0.276-0.23-0.375-0.345l-0.399-0.47l0.419-0.444c0.059-0.061,0.899-0.951,1.729-1.822
	c-0.352,0.03-0.688,0.073-0.958,0.137c-1.042,0.239-2.72,1.153-2.72,1.153l-2.587,8.082c0,0,0.583,1.143,0.597,1.084l0.174-0.646
	c0.208-0.816,0.869-1.37,1.606-1.337c0.135,0.005,0.27,0.031,0.399,0.076c0.414,0.144,0.755,0.466,0.961,0.907
	c0.044,0.096,0.08,0.194,0.11,0.297c0.303-0.315,0.707-0.499,1.137-0.479c0.135,0.005,0.27,0.032,0.4,0.076
	c0.414,0.144,0.755,0.467,0.961,0.908c0.011,0.023,0.019,0.048,0.029,0.071c0.311-0.477,0.807-0.766,1.345-0.743
	c0.135,0.006,0.27,0.032,0.4,0.076c0.414,0.144,0.755,0.467,0.961,0.909c0.15,0.321,0.214,0.684,0.19,1.04
	c0.242-0.146,0.518-0.225,0.806-0.211c0.134,0.005,0.269,0.03,0.399,0.076c0.414,0.143,0.755,0.466,0.961,0.908
	c0.025,0.052,0.047,0.107,0.066,0.162c0.04,0.006,0.077,0.019,0.113,0.044l1.475,1.055c0.001,0.004,0.001,0.004,0.003,0.005
	l2.58,1.847c0.505,0.363,1.167,0.179,1.477-0.412c0.311-0.589,0.152-1.36-0.353-1.724l-2.891-2.07h0.001l-0.98-0.702
	c-0.128-0.091-0.168-0.286-0.09-0.436s0.246-0.196,0.374-0.105l1.479,1.06c0.003,0.002,0.006,0.005,0.009,0.009l3.309,2.368
	c0.505,0.364,1.167,0.179,1.477-0.411c0.312-0.59,0.153-1.361-0.353-1.723l-3.571-2.558c0,0-0.001,0-0.001-0.003l-1.567-1.121
	c-0.136-0.098-0.178-0.305-0.094-0.463c0.083-0.158,0.261-0.208,0.396-0.11l1.431,1.024l0,0l4.539,3.251
	c0.506,0.362,1.167,0.178,1.478-0.412C31.769,82.82,31.61,82.049,31.105,81.687z"/>
<path fill="#010101" d="M94.914,23.125v-7.918c0-1.124,0.918-2.038,2.05-2.038c1.124,0,2.036,0.915,2.036,2.038v10.842
	c0,1.5-0.539,2.947-1.507,4.079l-6.762,7.18c-0.671,0.632-0.835,1.192-0.835,2.039v1.307h-7.358l-0.01-3.11
	c0-1.185-0.097-2.767,1.386-4.321l8.579-8.615c0.306-0.295,0.706-0.456,1.131-0.456c0.898,0,1.628,0.729,1.628,1.625
	c0,0.388-0.138,0.763-0.388,1.06l-4.138,4.432c-0.268,0.314-0.722,0.908-0.947,1.633c-0.122,0.377-0.156,0.746-0.162,1.167h1.332
	c0.005-0.3,0.026-0.541,0.098-0.765c0.132-0.419,0.391-0.796,0.586-1.038l4.199-4.61c0.529-0.532,0.819-1.222,0.819-1.947
	C96.65,24.618,95.997,23.618,94.914,23.125z"/>
<path fill="#010101" d="M63.909,23.125v-7.918c0-1.124-0.919-2.038-2.051-2.038c-1.123,0-2.036,0.915-2.036,2.038v10.842
	c0,1.5,0.54,2.947,1.508,4.079l6.762,7.179c0.671,0.633,0.835,1.192,0.835,2.039v1.308h7.358l0.009-3.11
	c0-1.185,0.098-2.767-1.386-4.321l-8.578-8.614c-0.306-0.294-0.707-0.455-1.131-0.455c-0.899,0-1.628,0.727-1.628,1.623
	c0,0.388,0.137,0.764,0.388,1.06l4.138,4.431c0.268,0.315,0.722,0.908,0.947,1.634c0.121,0.377,0.156,0.745,0.162,1.167h-1.332
	c-0.004-0.301-0.027-0.542-0.099-0.766c-0.131-0.419-0.39-0.796-0.585-1.038l-4.2-4.611c-0.529-0.532-0.819-1.222-0.819-1.947
	C62.171,24.618,62.826,23.618,63.909,23.125z"/>
<path fill="#010101" d="M80.186,4.507c0.966,0,1.746-0.783,1.746-1.748c0-0.963-0.781-1.747-1.746-1.747
	c-0.964,0-1.745,0.785-1.745,1.747C78.44,3.724,79.222,4.507,80.186,4.507z"/>
<path fill="#010101" d="M70.709,4.516c-0.98,0-1.772-0.785-1.772-1.758C68.937,1.787,69.729,1,70.709,1
	c0.979,0,1.773,0.787,1.773,1.758C72.482,3.731,71.688,4.516,70.709,4.516z"/>
<circle fill="#010101" cx="88.866" cy="10.035" r="1.225"/>
<path fill="#010101" d="M90.639,11.864c-0.431,0-2.886,0-3.305,0c-0.015,0-1.106-0.099-1.106-0.099L84.844,6.94
	c-0.558-1.943-2.187-1.883-2.187-1.883h-2.282h-2.198c0,0-1.629-0.06-2.186,1.883l-0.684,2.376L74.626,6.94
	c-0.561-1.943-2.184-1.883-2.184-1.883h-1.736h-1.732c0,0-1.628-0.06-2.185,1.883l-1.396,4.863c-0.133,0.455,0.116,0.8,0.514,0.916
	c0.396,0.112,0.804-0.087,0.905-0.449l1.36-4.739l0.662-0.002l-1.984,8.208h1.753v0.002v5.826c0,0.481,0.388,0.872,0.868,0.872
	s0.873-0.391,0.873-0.872v-5.829h0.735v5.829c0,0.481,0.389,0.872,0.868,0.872c0.483,0,0.873-0.391,0.873-0.872v-5.826v-0.002h1.724
	l-1.963-8.208L73.24,7.53l1.345,4.689c0.021,0.08,0.058,0.153,0.104,0.217c0.132,0.199,0.361,0.309,0.616,0.301
	c0.256,0.008,0.485-0.1,0.616-0.297c0.056-0.071,0.093-0.152,0.115-0.242l1.337-4.669l0.609-0.001c0,0,0,13.03,0,13.867
	c0,0.568,0.465,1.026,1.029,1.026c0.565,0,1.025-0.458,1.025-1.026c0-0.837,0-7.889,0-7.889h0.757c0,0,0,7.053,0,7.889
	c0,0.568,0.459,1.026,1.023,1.026c0.566,0,1.031-0.458,1.031-1.026c0-0.837,0-13.867,0-13.867l0.664,0.001l1.301,4.741
	c0.07,0.233,0.266,0.387,0.498,0.445c0.01,0.004,0.017,0.008,0.025,0.01c0.207,0.047,1.163,0.318,1.866,0.519
	c0,1.279,0,8.067,0,8.601c0,0.396,0.323,0.718,0.721,0.718s0.721-0.322,0.721-0.718c0-0.589,0-4.297,0-4.297h0.563
	c0,0,0,3.708,0,4.297c0,0.396,0.322,0.718,0.718,0.718c0.398,0,0.724-0.322,0.724-0.718c0-0.589,0-8.035,0-8.035h0.553
	c0,0,0,2.379,0,2.722c0,0.299,0.244,0.539,0.538,0.539c0.295,0,0.529-0.24,0.529-0.539c0-0.294,0-2.654,0-3.096
	C92.271,12.568,91.507,11.864,90.639,11.864z"/>
<circle fill="#020202" cx="17.762" cy="9.202" r="2.766"/>
<path fill="#020202" d="M26.234,40.907l-5.774-8.962l2.337-7.792c0.04-0.133,0.062-0.268,0.069-0.4
	c0.018-0.047,0.027-0.097,0.027-0.149l-0.076-8.762l2.616-6.239c0.131-0.313,0.17-0.657,0.114-0.992L24.26,1.483
	c-0.166-0.971-1.088-1.624-2.06-1.457s-1.624,1.089-1.458,2.06l1.2,5.671l-2.189,5.273h-2.742L8.043,9.304
	C7.131,8.932,6.09,9.34,5.716,10.253c-0.373,0.911,0.163,1.94,1.073,2.313l8.808,3.55v7.529l-3.055,6.263l-5.899,0.548
	c-0.981,0.091-1.727,0.961-1.635,1.942c0.087,0.924,0.852,1.619,1.762,1.619c0.056,0,0.106-0.003,0.163-0.009l6.86-0.643
	c0.627-0.06,1.176-0.445,1.445-1.015l3.844-8.234l-2.276,7.589c-0.15,0.502-0.074,1.042,0.208,1.481l6.221,9.651
	c0.339,0.529,0.915,0.818,1.501,0.818c0.331,0,0.666-0.093,0.965-0.286C26.528,42.838,26.767,41.734,26.234,40.907z"/>
<line fill="none" stroke="#000000" stroke-width="2" x1="50" y1="0" x2="50" y2="100"/>
<line fill="none" stroke="#000000" stroke-width="2" x1="0" y1="50" x2="100" y2="50"/>
</svg>
