<svg xmlns="http://www.w3.org/2000/svg" xmlns:xlink="http://www.w3.org/1999/xlink" version="1.1" id="Layer_1" x="0px" y="0px" width="100px" height="100px" viewBox="0 0 100 100" enable-background="new 0 0 100 100" xml:space="preserve">
<path d="M60.541,28.82c0.532,2.353,1.176,4.893,1.301,7.342c0.033,0.654,0.072,1.512-0.201,2.07  c2.227,1.482,1.137,4.562-0.166,6.129c-0.469,0.562-1.535,1.26-1.773,1.957c-0.352,1.025-0.787,2.031-1.408,2.938  c-0.519,0.756-0.408,0.184-0.925,1.344c-0.35,1.576-0.881,5.145-0.13,6.61c0.986,1.921,3.146,3.137,4.934,4.159  c2.37,1.356,5.018,2.351,7.549,3.362c2.33,0.931,4.76,1.626,7.002,2.764c0.703,0.356,1.412,0.704,2.078,1.128  c0.537,0.342,1.438,0.869,1.566,1.559v5.424h-60.01l0.041-5.424c0.128-0.689,1.029-1.217,1.566-1.559  c0.666-0.424,1.375-0.771,2.078-1.128c2.242-1.138,4.673-1.833,7.002-2.764c2.531-1.012,5.178-2.006,7.549-3.362  c1.787-1.022,3.947-2.238,4.933-4.159c0.752-1.466,0.332-5.05-0.019-6.624l0,0c-0.601-0.389-1.016-1.594-1.357-2.197  c-0.359-0.637-0.648-1.324-1.086-1.914c-0.597-0.805-1.592-1.182-2.242-1.936c-0.434-0.502-0.619-1.124-0.834-1.74  c-0.257-0.736-0.131-1.334-0.246-2.161c-0.051-0.354,0.13-0.765,0.34-1.064c0.258-0.368,0.728-0.44,0.847-0.906  c0.147-0.577-0.177-1.253-0.239-1.823c-0.066-0.609-0.224-1.58-0.221-2.191c0.01-2.217-0.4-4.217,1.375-5.969  c0.624-0.614,1.333-1.145,2.01-1.699l0,0c0.26-0.828,1.507-1.338,2.236-1.616c0.947-0.36,1.943-0.562,2.914-0.851  c2.93-0.873,6.297-0.78,8.866,1.029c0.843,0.594,2.005,0.084,2.893,0.594C59.619,26.634,60.639,27.771,60.541,28.82z"/>
</svg>