<?xml version="1.0" encoding="utf-8"?>
<!-- Generator: Adobe Illustrator 15.1.0, SVG Export Plug-In  -->
<!DOCTYPE svg PUBLIC "-//W3C//DTD SVG 1.1//EN" "http://www.w3.org/Graphics/SVG/1.1/DTD/svg11.dtd" [
	<!ENTITY ns_flows "http://ns.adobe.com/Flows/1.0/">
]>
<svg version="1.1"
	 xmlns="http://www.w3.org/2000/svg" xmlns:xlink="http://www.w3.org/1999/xlink" xmlns:a="http://ns.adobe.com/AdobeSVGViewerExtensions/3.0/"
	 x="0px" y="0px" width="251px" height="133px" viewBox="0 0 251 133" overflow="visible" enable-background="new 0 0 251 133"
	 xml:space="preserve">
<defs>
</defs>
<polygon fill="#2F5A5D" points="206.37,68.377 206.37,53.817 171.659,53.817 171.659,88.53 206.37,88.53 206.37,82.668 
	192.937,82.668 192.937,78.309 197.567,78.309 197.567,73.971 192.937,73.971 192.937,68.377 "/>
<polygon fill="#9E352C" points="109.725,117.286 110.964,122.063 102.723,122.063 102.723,111.126 108.126,111.126 108.926,114.205 
	122.376,114.205 122.376,104.235 122.376,95.092 91.742,95.092 84.146,104.235 84.146,124.177 84.146,133.321 114.78,133.321 
	122.376,124.177 122.376,117.286 "/>
<polygon fill="#2F5A5D" points="29.76,40.146 29.76,36.899 29.76,34.08 36.203,34.08 36.203,28.043 29.76,28.043 29.76,20.26 
	48.452,20.26 48.452,0 0.151,0 0.151,48.304 29.76,48.304 "/>
<polygon fill="#2F5A5D" points="29.001,68.377 14.712,68.377 14.712,53.817 0.151,53.817 0.151,88.53 14.712,88.53 14.712,82.667 
	29.001,82.667 29.001,88.53 34.863,88.53 34.863,53.817 29.001,53.817 "/>
<polygon fill="#9E352C" points="210.362,95.099 232.559,95.086 236.433,107.926 242.136,107.926 242.136,95.099 248.592,95.099 
	248.592,133.327 226.397,133.327 222.985,122.064 216.807,122.064 216.807,122.064 216.821,133.327 210.362,133.327 "/>
<path fill="#9E352C" d="M133.812,95.094l-7.593,9.143v29.084h30.631l7.597-9.143V95.094H133.812z M152.311,122.064h-8.241
	l2.836-10.938h5.405V122.064z"/>
<path fill="#9E352C" d="M175.884,95.094l-7.593,9.143v29.084h30.632l7.596-9.143V95.094H175.884z M194.382,122.064h-8.241
	l2.836-10.938h5.405V122.064z"/>
<path fill="#2F5A5D" d="M49.92,53.817l-6.896,8.303v26.41H70.84l6.897-8.303v-26.41H49.92z M66.717,78.309h-7.483l2.574-9.932h4.909
	V78.309z"/>
<polygon fill="#9E352C" points="71.16,118.454 80.303,110.859 80.303,95.092 62.599,95.092 62.599,110.41 59.775,110.41 
	59.775,95.092 42.072,95.092 42.072,110.859 51.216,118.454 51.216,133.321 71.16,133.321 "/>
<polygon fill="#9E352C" points="38.228,115.619 38.228,95.094 0,95.094 0,115.619 6.241,115.619 6.241,133.32 24.036,133.32 
	24.036,115.619 "/>
<polygon fill="#2F5A5D" points="206.37,25.937 206.37,0.001 158.066,0.001 158.066,25.937 165.954,25.937 165.954,48.303 
	188.437,48.303 188.437,25.937 "/>
<polygon fill="#2F5A5D" points="128.784,53.817 128.771,73.971 140.434,77.489 140.434,82.665 128.784,82.665 128.784,88.529 
	163.496,88.529 163.496,68.377 151.836,64.858 151.836,59.68 151.847,59.68 163.496,59.68 163.496,53.817 "/>
<path fill="#2F5A5D" d="M101.092,48.303V35.528l-11.551-9.594h11.551V0.001H52.789v48.301h17.019v-0.044v-0.63V33.643h6.803
	l8.282,14.66H101.092z M76.941,20.26h-7.134V9.303h7.134V20.26z"/>
<polygon fill="#2F5A5D" points="104.538,53.817 104.538,72.455 101.975,72.455 101.975,53.817 85.898,53.817 85.898,77.581 
	85.898,80.229 92.793,88.529 94.2,88.529 94.2,88.53 111.447,88.53 112.309,88.53 113.717,88.53 120.61,80.229 120.61,78.455 
	120.61,53.817 "/>
<path fill="#2F5A5D" d="M153.729,0.001v48.301h-12.274V34.081h-9.783l-4.239,14.222h-22.005v-36.75l9.599-11.552H153.729z
	 M141.455,28.045l-0.011-7.785h-5.67l-2.312,7.785H141.455z"/>
<path fill="#79A073" d="M232.229,21.023c0,2.961-2.309,5.361-5.146,5.361c-2.84,0-5.141-2.399-5.141-5.361
	c0-2.958,2.301-5.358,5.141-5.358C229.921,15.666,232.229,18.065,232.229,21.023z"/>
<path fill="#79A073" d="M212.315,87.236c0.553,0.37,1.173,0.544,1.792,0.544c1.095,0,2.157-0.555,2.791-1.578l11.58-18.704
	c0.523-0.85,0.666-1.891,0.38-2.865l-4.234-14.704l7.153,15.951c0.507,1.099,1.523,1.851,2.688,1.965l12.763,1.25
	c0.11,0.006,0.205,0.017,0.301,0.017c1.698,0,3.124-1.348,3.284-3.141c0.174-1.901-1.222-3.586-3.047-3.766l-10.976-1.058
	l-5.678-12.136V34.423l16.385-6.882c1.697-0.723,2.688-2.713,1.998-4.481c-0.697-1.768-2.633-2.561-4.331-1.838l-16.686,7.22h-5.101
	l-4.068-10.219l2.229-10.987c0.311-1.883-0.903-3.667-2.712-3.994c-1.802-0.322-3.522,0.942-3.829,2.826l-2.396,11.875
	c-0.111,0.649-0.032,1.313,0.214,1.921l4.861,12.09l-0.144,16.976c0,0.103,0.016,0.199,0.056,0.289
	c0.009,0.256,0.056,0.513,0.129,0.776l4.354,15.102l-10.747,17.363C210.332,84.064,210.776,86.194,212.315,87.236z"/>
</svg>
