<?xml version="1.0" encoding="utf-8"?>
<!-- Generator: Adobe Illustrator 15.0.0, SVG Export Plug-In . SVG Version: 6.00 Build 0)  -->
<!DOCTYPE svg PUBLIC "-//W3C//DTD SVG 1.1//EN" "http://www.w3.org/Graphics/SVG/1.1/DTD/svg11.dtd">
<svg version="1.1" id="Layer_1" xmlns="http://www.w3.org/2000/svg" xmlns:xlink="http://www.w3.org/1999/xlink" x="0px" y="0px"
	 width="49.289px" height="100px" viewBox="0 0 49.289 100" enable-background="new 0 0 49.289 100" xml:space="preserve">
<g>
	<circle fill="#010101" cx="29.231" cy="21.104" r="6.335"/>
	<path fill="#010101" d="M48.637,93.726L35.411,73.2l5.355-17.849c0.091-0.305,0.141-0.613,0.159-0.918
		c0.041-0.107,0.062-0.22,0.062-0.341l-0.174-20.07l5.991-14.29c0.301-0.718,0.392-1.506,0.261-2.271L44.117,3.423
		c-0.381-2.225-2.493-3.719-4.718-3.338c-2.226,0.382-3.719,2.494-3.338,4.719l2.748,12.99l-5.014,12.077h-6.281L6.971,21.338
		c-2.089-0.854-4.475,0.083-5.331,2.173c-0.854,2.088,0.372,4.443,2.459,5.298l20.175,8.133V54.19l-6.998,14.344L3.762,69.791
		c-2.247,0.21-3.955,2.202-3.744,4.45c0.198,2.117,1.951,3.707,4.036,3.707c0.127,0,0.243-0.007,0.373-0.02l15.714-1.474
		c1.438-0.136,2.694-1.019,3.31-2.324l8.806-18.859l-5.215,17.383c-0.343,1.149-0.169,2.386,0.478,3.392l14.25,22.106
		c0.778,1.213,2.096,1.873,3.438,1.873c0.759,0,1.525-0.212,2.211-0.651C49.313,98.15,49.859,95.622,48.637,93.726z"/>
</g>
</svg>
