<svg class="rushees" xmlns="http://www.w3.org/2000/svg" xmlns:xlink="http://www.w3.org/1999/xlink" version="1.1" id="Layer_1" x="0px" y="0px" viewBox="0 0 100 44.833" enable-background="new 0 0 100 44.833" xml:space="preserve">
<path d="M100.005,23.632c0.407,1.403-0.398,2.872-1.802,3.28l-15.507,4.511c-1.403,0.407-2.872-0.399-3.28-1.803L73.117,7.97  c-0.407-1.404,0.399-2.872,1.803-3.281l15.506-4.51c1.403-0.408,2.873,0.398,3.28,1.802L100.005,23.632z"/>
<path d="M71.89,8.435c0,0-2.041,0.476-4.035,0.523s-5.271-0.318-6.043-0.678s-1.268-0.591-1.879-0.876  c-3.032-1.415-5.557-2.592-5.558-2.592c-0.084-0.04-0.172-0.06-0.259-0.092c-0.02-0.007-0.04-0.011-0.06-0.019  c-0.312-0.123-0.646-0.207-0.998-0.239L45.68,3.805c-0.876-0.08-1.708,0.16-2.38,0.624c-0.014,0.009-0.037,0.026-0.066,0.049  c-0.164,0.119-0.319,0.248-0.461,0.392c-1.839,1.6-7.704,6.917-7.704,6.917c0.156,0.157,0.391,0.348,0.692,0.542  c0.195,0.125,0.42,0.25,0.671,0.368c0.22,0.103,0.457,0.199,0.716,0.283c0.111,0.035,0.222,0.072,0.339,0.103  c1.359,0.356,3.383,0.393,5.666-1.177c0.213-0.146,1.45-1.005,1.826-1.28c0.6-0.438,1.681-0.85,3.3-0.729  c1.62,0.122,4.183,0.846,4.183,0.846l24.462,15.008L71.89,8.435z"/>
<path d="M45.059,34.078c0.412-1.392,1.874-2.185,3.264-1.772l0,0c1.391,0.412,2.184,1.874,1.771,3.266l-1.712,5.672  c-0.412,1.39-1.874,2.184-3.264,1.771l0,0c-1.391-0.412-2.184-1.873-1.771-3.264L45.059,34.078z"/>
<path d="M39.298,30.277c0.413-1.391,1.873-2.184,3.264-1.771l0,0c1.391,0.412,2.184,1.873,1.771,3.264l-2.053,6.67  c-0.413,1.391-1.873,2.183-3.264,1.771l0,0c-1.39-0.413-2.183-1.874-1.771-3.265L39.298,30.277z"/>
<path d="M32.612,29.62c0.412-1.391,1.874-2.184,3.264-1.771l0,0c1.391,0.412,2.184,1.874,1.771,3.265l-1.343,4.361  c-0.413,1.391-1.874,2.184-3.265,1.771l0,0c-1.391-0.412-2.183-1.874-1.771-3.264L32.612,29.62z"/>
<path d="M26.238,27.941c0.413-1.391,1.874-2.184,3.265-1.771l0,0c1.391,0.412,2.184,1.873,1.771,3.264l-0.419,1.332  c-0.412,1.391-1.874,2.184-3.264,1.771l0,0c-1.391-0.412-2.184-1.873-1.771-3.264L26.238,27.941z"/>
<path d="M20.201,30.355c-0.513,1.369-2.038,2.062-3.406,1.551L1.671,26.242c-1.369-0.513-2.063-2.038-1.55-3.407L8.029,1.718  c0.513-1.369,2.038-2.062,3.407-1.55l15.123,5.664c1.369,0.513,2.063,2.038,1.55,3.407L20.201,30.355z"/>
<path d="M57.619,38.692l-3.213-1.972c-0.003-0.002-0.006-0.003-0.009-0.005l-2.877-1.766c-0.011,0.334-0.061,0.668-0.157,0.997  l-1.291,4.275l4.799,2.946c1.235,0.759,2.854,0.372,3.612-0.864S58.855,39.451,57.619,38.692z"/>
<path d="M75.379,26.337L61.114,17.58c-0.056-0.034-0.112-0.063-0.17-0.092l-9.019-5.546c-0.706-0.185-2.582-0.637-3.746-0.724  c-0.083-0.007-0.164-0.011-0.243-0.014c-1.293-0.048-1.954,0.327-2.177,0.491c-0.396,0.29-1.663,1.169-1.859,1.304  c-1.644,1.13-3.37,1.67-5.127,1.604c-0.546-0.021-1.091-0.101-1.621-0.24c-0.111-0.029-0.22-0.063-0.328-0.097l-0.072-0.023  c-0.309-0.1-0.602-0.215-0.884-0.348c-0.287-0.134-0.564-0.286-0.822-0.451c-0.361-0.233-0.677-0.482-0.917-0.724l-0.977-0.982  l1.026-0.931c0.143-0.129,2.198-1.993,4.226-3.818c-0.861,0.063-1.685,0.154-2.343,0.284c-2.548,0.503-6.65,2.418-6.65,2.418  l-6.324,16.935c0,0,1.425,2.391,1.46,2.27l0.426-1.352c0.507-1.709,2.124-2.871,3.926-2.804c0.33,0.013,0.659,0.066,0.977,0.161  c1.012,0.3,1.846,0.976,2.349,1.902c0.109,0.201,0.196,0.409,0.268,0.621c0.742-0.663,1.729-1.045,2.78-1.006  c0.33,0.013,0.659,0.067,0.978,0.161c1.011,0.3,1.845,0.976,2.349,1.903c0.026,0.049,0.047,0.1,0.072,0.149  c0.759-0.998,1.973-1.604,3.288-1.556c0.33,0.012,0.659,0.066,0.978,0.16c1.011,0.301,1.845,0.976,2.348,1.902  c0.368,0.678,0.524,1.432,0.466,2.182c0.592-0.308,1.266-0.471,1.97-0.444c0.33,0.012,0.658,0.066,0.977,0.16  c1.011,0.3,1.845,0.976,2.349,1.903c0.061,0.111,0.114,0.225,0.163,0.339c0.095,0.01,0.188,0.039,0.275,0.093l3.606,2.213  c0.003,0.002,0.005,0.004,0.007,0.006l6.308,3.872c1.235,0.759,2.853,0.372,3.611-0.864c0.759-1.235,0.372-2.853-0.863-3.612  l-7.065-4.337l0.001-0.001l-2.396-1.471c-0.312-0.192-0.411-0.602-0.219-0.915c0.191-0.312,0.602-0.41,0.915-0.219l3.614,2.219  c0.009,0.005,0.015,0.013,0.022,0.018l8.089,4.966c1.236,0.759,2.853,0.371,3.611-0.864c0.759-1.236,0.372-2.853-0.864-3.611  l-8.73-5.36c-0.001,0-0.002,0-0.003-0.001l-3.83-2.352c-0.332-0.203-0.436-0.637-0.231-0.969c0.203-0.332,0.638-0.436,0.969-0.232  l3.498,2.147v-0.001l11.095,6.812c1.235,0.759,2.853,0.373,3.611-0.864C77.001,28.713,76.614,27.096,75.379,26.337z"/>
</svg>